<svg width="22" height="16" viewBox="0 0 22 16" fill="none" xmlns="http://www.w3.org/2000/svg">
<path d="M2.75 0C1.2332 0 0 1.19583 0 2.66667V13.3333C0 14.8042 1.2332 16 2.75 16H19.25C20.7668 16 22 14.8042 22 13.3333V2.66667C22 1.19583 20.7668 0 19.25 0H2.75ZM6.875 10.6667C6.875 11.0203 6.73013 11.3594 6.47227 11.6095C6.21441 11.8595 5.86467 12 5.5 12C5.13533 12 4.78559 11.8595 4.52773 11.6095C4.26987 11.3594 4.125 11.0203 4.125 10.6667C4.125 10.313 4.26987 9.97391 4.52773 9.72386C4.78559 9.47381 5.13533 9.33333 5.5 9.33333C5.86467 9.33333 6.21441 9.47381 6.47227 9.72386C6.73013 9.97391 6.875 10.313 6.875 10.6667ZM5.5 6.66667C5.13533 6.66667 4.78559 6.52619 4.52773 6.27614C4.26987 6.02609 4.125 5.68696 4.125 5.33333C4.125 4.97971 4.26987 4.64057 4.52773 4.39052C4.78559 4.14048 5.13533 4 5.5 4C5.86467 4 6.21441 4.14048 6.47227 4.39052C6.73013 4.64057 6.875 4.97971 6.875 5.33333C6.875 5.68696 6.73013 6.02609 6.47227 6.27614C6.21441 6.52619 5.86467 6.66667 5.5 6.66667ZM10.6563 4.33333H16.8438C17.4152 4.33333 17.875 4.77917 17.875 5.33333C17.875 5.8875 17.4152 6.33333 16.8438 6.33333H10.6563C10.0848 6.33333 9.625 5.8875 9.625 5.33333C9.625 4.77917 10.0848 4.33333 10.6563 4.33333ZM10.6563 9.66667H16.8438C17.4152 9.66667 17.875 10.1125 17.875 10.6667C17.875 11.2208 17.4152 11.6667 16.8438 11.6667H10.6563C10.0848 11.6667 9.625 11.2208 9.625 10.6667C9.625 10.1125 10.0848 9.66667 10.6563 9.66667Z" fill="#10202D"/>
</svg>
